<svg width="150" height="68" viewBox="0 0 150 68" fill="none" xmlns="http://www.w3.org/2000/svg">
<path fill-rule="evenodd" clip-rule="evenodd" d="M1.85936 8.91998C-0.483788 11.2631 -0.483789 15.0621 1.85936 17.4053L18.1228 33.6687L1.85936 49.9322C-0.483789 52.2753 -0.483789 56.0743 1.85936 58.4175L8.93042 65.4885C11.2736 67.8317 15.0726 67.8317 17.4157 65.4885L33.6792 49.2251L49.9426 65.4885C52.2858 67.8317 56.0848 67.8317 58.4279 65.4885L65.499 58.4175C67.8421 56.0743 67.8421 52.2753 65.499 49.9322L49.2355 33.6687L65.499 17.4053C67.8421 15.0621 67.8421 11.2631 65.499 8.91999L58.4279 1.84893C56.0848 -0.49422 52.2858 -0.494221 49.9426 1.84892L33.6792 18.1124L17.4157 1.84891C15.0726 -0.494233 11.2736 -0.494234 8.93043 1.84891L1.85936 8.91998Z" fill="#33C5C2"/>
<path fill-rule="evenodd" clip-rule="evenodd" d="M116 68C134.778 68 150 52.7777 150 34C150 15.2223 134.778 0 116 0C97.2223 0 82 15.2223 82 34C82 52.7777 97.2223 68 116 68ZM116 46C122.627 46 128 40.6274 128 34C128 27.3726 122.627 22 116 22C109.373 22 104 27.3726 104 34C104 40.6274 109.373 46 116 46Z" fill="#F3B53C"/>
</svg>
