<svg width="20" height="20" viewBox="0 0 20 20" fill="none" xmlns="http://www.w3.org/2000/svg">
<path fill-rule="evenodd" clip-rule="evenodd" d="M1.54771 1.54769C0.263993 2.83141 0.263995 4.91273 1.54771 6.19645L5.35125 9.99998L1.54771 13.8035C0.263993 15.0872 0.263992 17.1686 1.54771 18.4523C2.83143 19.736 4.91275 19.736 6.19647 18.4523L10 14.6487L13.8035 18.4523C15.0872 19.736 17.1686 19.736 18.4523 18.4523C19.736 17.1685 19.736 15.0872 18.4523 13.8035L14.6488 9.99998L18.4523 6.19646C19.736 4.91274 19.736 2.83142 18.4523 1.5477C17.1686 0.263978 15.0872 0.26398 13.8035 1.5477L10 5.35122L6.19647 1.54769C4.91275 0.26397 2.83143 0.263969 1.54771 1.54769Z" fill="#A8BEC9"/>
</svg>
