<svg width="65" height="65" viewBox="0 0 65 65" fill="none" xmlns="http://www.w3.org/2000/svg">
<path fill-rule="evenodd" clip-rule="evenodd" d="M1.9677 8.34767C-0.375446 10.6908 -0.37545 14.4898 1.9677 16.8329L17.334 32.1992L1.9677 47.5655C-0.375444 49.9086 -0.375445 53.7076 1.9677 56.0507L8.35812 62.4412C10.7013 64.7843 14.5002 64.7843 16.8434 62.4412L32.2097 47.0749L47.5759 62.4411C49.919 64.7843 53.718 64.7843 56.0611 62.4411L62.4516 56.0507C64.7947 53.7076 64.7947 49.9086 62.4516 47.5654L47.0854 32.1992L62.4516 16.833C64.7947 14.4898 64.7947 10.6909 62.4516 8.34771L56.0611 1.9573C53.718 -0.38585 49.919 -0.385854 47.5759 1.95729L32.2097 17.3235L16.8434 1.95725C14.5003 -0.385896 10.7013 -0.385896 8.35812 1.95725L1.9677 8.34767Z" fill="#33C5C2"/>
</svg>
